<svg xmlns="http://www.w3.org/2000/svg" viewBox="0 0 656.81 150.3"><defs><style>.cls-1{fill:none;}.cls-2{fill:#393c41;}.cls-3{fill:#3e6f99;}.cls-4{fill:#d7d8d9;}</style></defs><title>pepaken_blog</title><g id="レイヤー_2" data-name="レイヤー 2"><g id="レイヤー_1-2" data-name="レイヤー 1"><rect class="cls-1" width="656.81" height="150.3"/><path class="cls-2" d="M223.08,92,183.71,52.56a.56.56,0,0,0-.79,0L181,54.5l-.4.4-.4.4L151,84.48a.56.56,0,0,0,0,.79L157.73,92a.56.56,0,0,0,.79,0l24.39-24.39a.56.56,0,0,1,.79,0l31.85,31.91a.56.56,0,0,0,.79,0l6.73-6.73A.56.56,0,0,0,223.08,92Z"/><circle class="cls-2" cx="214.63" cy="55.15" r="7.86"/><path class="cls-2" d="M252.81,52.62H242.47a.65.65,0,0,0-.63.56l-5.59,46.47a.49.49,0,0,0,.49.56h10.33a.65.65,0,0,0,.63-.56l5.59-46.47A.49.49,0,0,0,252.81,52.62Z"/><path class="cls-2" d="M288.63,52.62H278.3a.49.49,0,0,0-.49.56l5.64,46.47a.65.65,0,0,0,.63.56h10.33a.49.49,0,0,0,.49-.56l-5.64-46.47A.65.65,0,0,0,288.63,52.62Z"/><circle class="cls-2" cx="303.52" cy="55.15" r="7.86"/><path class="cls-2" d="M339.93,55.95H349a.56.56,0,0,0,.56-.56V50.66a.56.56,0,0,0-.56-.56H321.8a.56.56,0,0,0-.56.56v4.72a.56.56,0,0,0,.56.56H328a.63.63,0,0,1,.62.74l-7.35,42.94a.46.46,0,0,0,.47.55h9.51a.69.69,0,0,0,.66-.55l7.38-43.11A.68.68,0,0,1,339.93,55.95Z"/><path class="cls-2" d="M384.13,55.95h2.75a.56.56,0,0,0,.56-.56V50.66a.56.56,0,0,0-.56-.56h-30.5a.56.56,0,0,0-.56.56v4.72a.56.56,0,0,0,.56.56h2.54a.65.65,0,0,1,.64.76L358,66.05a.68.68,0,0,1-.67.57h-7.12a.56.56,0,0,0-.56.56v4.72a.56.56,0,0,0,.56.56h5.92a.66.66,0,0,1,.65.77l-4.51,26.42a.46.46,0,0,0,.47.55h9.51a.69.69,0,0,0,.66-.55L367.42,73a.66.66,0,0,1,.65-.55h4.09a.67.67,0,0,1,.67.67V99.65a.56.56,0,0,0,.56.56h9.52a.56.56,0,0,0,.56-.56V73.14a.67.67,0,0,1,.67-.67h2.75a.56.56,0,0,0,.56-.56V67.18a.56.56,0,0,0-.56-.56h-2.74a.68.68,0,0,1-.68-.68V56.61A.67.67,0,0,1,384.13,55.95Zm-11.31,10a.68.68,0,0,1-.68.68h-2.87a.65.65,0,0,1-.64-.76l1.6-9.36a.68.68,0,0,1,.67-.56h1.25a.67.67,0,0,1,.67.67Z"/><circle class="cls-2" cx="343.28" cy="92.32" r="7.86"/><path class="cls-2" d="M404.76,51.46a1,1,0,0,0-1,1v8.68a1,1,0,0,0,1,1H438a.73.73,0,0,1,.75,1l-8.54,35A.73.73,0,0,0,431,99h9.72a1.31,1.31,0,0,0,1.21-.95l11.13-45.68a.73.73,0,0,0-.75-.95Z"/><rect class="cls-2" x="457.22" y="46.51" width="7.64" height="12.89" rx="0.83" ry="0.83"/><rect class="cls-2" x="468.12" y="46.51" width="7.64" height="12.89" rx="0.83" ry="0.83"/><path class="cls-2" d="M535.64,50.95H486.11a.65.65,0,0,0-.63.56L479.89,98a.49.49,0,0,0,.49.56h49.53a.65.65,0,0,0,.63-.56l5.59-46.46A.49.49,0,0,0,535.64,50.95Zm-15.25,36.2H492.65l3-24.82h27.74Z"/><path class="cls-2" d="M593.3,51.46H558.17c-.32,0-.7.42-.83.95l-7.87,30a.72.72,0,0,0,.73.95h8.87a1.33,1.33,0,0,0,1.22-.95l5-19.39a1.33,1.33,0,0,1,1.22-.95h22.29a.74.74,0,0,1,.75,1l-8.36,35a.74.74,0,0,0,.75,1h9.72a1.3,1.3,0,0,0,1.2-1l10.9-45.67c.12-.52,0-1-.35-1H593.3Z"/><rect class="cls-2" x="607.97" y="46.51" width="7.64" height="12.89" rx="0.83" ry="0.83"/><rect class="cls-2" x="618.87" y="46.51" width="7.64" height="12.89" rx="0.83" ry="0.83"/><path class="cls-3" d="M93.6,113a28.88,28.88,0,0,1-3,.15h-.41a28.83,28.83,0,0,1-14.82-4.33c-.58-.36-1.16-.74-1.72-1.15a29,29,0,0,1-3.44-2.94,28.54,28.54,0,0,1-6-8.74c-.25-.57-.48-1.15-.7-1.74s-.33-.93-.47-1.4A17.2,17.2,0,0,0,51.69,81.45c-.47-.14-.94-.3-1.4-.47h0q-.88-.32-1.74-.7a28.71,28.71,0,0,0-1.6,14.91c.11.69.25,1.36.4,2a28.81,28.81,0,0,0,7.42,13.55h0a28.85,28.85,0,0,0,14.24,8,3.14,3.14,0,0,1,.6.94s3.24,7.28,5.82,13.59c2.58-6.31,5.82-13.59,5.82-13.59a3.12,3.12,0,0,1,.59-.94A28.77,28.77,0,0,0,93.6,113Z"/><path class="cls-4" d="M117,89.82a28.75,28.75,0,0,1-13.54,7.41c-.67.16-1.35.3-2,.41A29.25,29.25,0,0,1,97,98a28.61,28.61,0,0,1-10.4-2q-.88-.34-1.73-.74a29.13,29.13,0,0,1-9.4-7,29.13,29.13,0,0,1-9.4,7c-.57.27-1.15.51-1.73.74a28.54,28.54,0,0,0,6,8.74,29,29,0,0,0,3.44,2.94c.56.41,1.14.79,1.72,1.15a28.83,28.83,0,0,0,14.82,4.33h.41a28.78,28.78,0,0,0,28.67-25.87A28.53,28.53,0,0,1,117,89.82Z"/><path class="cls-3" d="M96.07,27.53a28.77,28.77,0,0,0-38.84-2.27,28.79,28.79,0,0,1,3-.15h.41a28.81,28.81,0,0,1,14.81,4.33c.58.36,1.16.74,1.72,1.15a29,29,0,0,1,3.44,2.94,28.57,28.57,0,0,1,6,8.74q.38.86.7,1.74c.17.46.33.93.47,1.4A17.18,17.18,0,0,0,99.15,56.85c.47.15.94.3,1.4.47s1.17.44,1.74.7a28.71,28.71,0,0,0,1.6-14.91c-.11-.69-.25-1.36-.4-2a28.81,28.81,0,0,0-7.42-13.55"/><path class="cls-4" d="M80.58,33.54a29,29,0,0,0-3.44-2.94c-.56-.41-1.14-.79-1.72-1.15a28.81,28.81,0,0,0-14.81-4.33h-.41A28.78,28.78,0,0,0,31.53,51,28.27,28.27,0,0,1,33.8,48.5a28.79,28.79,0,0,1,13.54-7.42q1-.24,2-.4a28.6,28.6,0,0,1,14.91,1.6c.58.23,1.16.47,1.73.74a29.13,29.13,0,0,1,9.4,7,29.13,29.13,0,0,1,9.4-7c.57-.27,1.15-.51,1.73-.74A28.57,28.57,0,0,0,80.58,33.54Z"/><path class="cls-3" d="M125.79,69.15A28.68,28.68,0,0,0,119.31,51a29,29,0,0,1-4.18,18.18c-.36.58-.74,1.16-1.15,1.72a28.71,28.71,0,0,1-11.68,9.41q-.86.38-1.74.7c-.47.17-.93.33-1.4.47A17.2,17.2,0,0,0,87.72,92.89c-.14.47-.3.94-.47,1.4h0c-.21.59-.45,1.17-.7,1.74A28.61,28.61,0,0,0,97,98a29.25,29.25,0,0,0,4.51-.35c.68-.11,1.36-.25,2-.41A28.75,28.75,0,0,0,117,89.82h0a28.77,28.77,0,0,0,8.76-20.66Z"/><path class="cls-4" d="M119.31,51A28.77,28.77,0,0,0,93.6,25.26a29,29,0,0,1,9.9,15.82c.15.67.29,1.35.4,2A28.71,28.71,0,0,1,102.29,58c-.23.59-.48,1.16-.74,1.73a29.13,29.13,0,0,1-7,9.4,29.09,29.09,0,0,1,7,9.4q.39.85.74,1.73A28.71,28.71,0,0,0,114,70.88c.41-.56.79-1.14,1.15-1.72A29,29,0,0,0,119.31,51Z"/><path class="cls-4" d="M54.76,110.78a28.81,28.81,0,0,1-7.42-13.55c-.15-.67-.29-1.35-.4-2a28.71,28.71,0,0,1,1.6-14.91q.34-.88.74-1.73a29.13,29.13,0,0,1,7-9.4,29.16,29.16,0,0,1-7-9.41q-.39-.85-.74-1.73a28.65,28.65,0,0,0-8.74,6,29,29,0,0,0-2.94,3.44c-.41.56-.79,1.14-1.15,1.72A28.8,28.8,0,0,0,31.38,84a29.54,29.54,0,0,0,.14,3.36A28.77,28.77,0,0,0,57.24,113,28.87,28.87,0,0,1,54.76,110.78Z"/><path class="cls-3" d="M53.88,40.32a28.78,28.78,0,0,0-4.51.36q-1,.16-2,.4A28.79,28.79,0,0,0,33.8,48.5,28.26,28.26,0,0,0,31.53,51a28.75,28.75,0,0,0,0,36.36q-.08-.84-.12-1.68t0-1.68a28.8,28.8,0,0,1,4.33-14.81h0c.36-.58.74-1.16,1.15-1.72A29,29,0,0,1,39.8,64q.48-.48,1-.94,1-.91,2.07-1.71T45,59.85q.56-.35,1.14-.67,1.15-.64,2.35-1.16.86-.38,1.74-.7c.47-.17.93-.33,1.4-.47A17.18,17.18,0,0,0,63.12,45.43c.15-.47.3-.94.47-1.4h0c.21-.59.44-1.17.7-1.74A28.6,28.6,0,0,0,53.88,40.32Z"/></g></g></svg>