<?xml version="1.0" encoding="UTF-8"?><svg id="_レイヤー_2" xmlns="http://www.w3.org/2000/svg" viewBox="0 0 562 122"><defs><style>.cls-1{fill:none;}.cls-2{fill:#005bac;}.cls-3{fill:#d7d8d9;}.cls-4{fill:#1f7acc;}.cls-5{fill:#3e6f99;}.cls-6{fill:#9a9da6;}.cls-7{fill:#38393c;}.cls-8{fill:#393c41;}</style></defs><g id="_レイヤー_1-2"><g><rect class="cls-1" width="562" height="122"/><g><path class="cls-5" d="m81.79,93.82c-.87.09-1.74.14-2.61.14-.12,0-.24,0-.36,0-4.55-.07-9.08-1.34-13.07-3.82-.51-.32-1.02-.65-1.52-1.01-1.06-.77-2.08-1.63-3.04-2.59-2.26-2.26-4.03-4.89-5.27-7.72-.22-.51-.43-1.02-.62-1.54-.15-.41-.29-.82-.41-1.23-1.49-4.84-5.24-8.6-10.09-10.09-.41-.13-.83-.27-1.24-.41h0c-.52-.19-1.03-.39-1.54-.62-1.12,2.87-1.73,5.97-1.73,9.18,0,1.36.11,2.68.31,3.98.1.61.22,1.2.35,1.79,1.07,4.58,3.38,8.69,6.55,11.95h0c.69.71,1.42,1.38,2.18,2,2.98,2.42,6.51,4.19,10.38,5.07.22.24.4.52.53.83,0,0,2.85,6.42,5.13,11.99,2.27-5.57,5.14-11.99,5.14-11.99.13-.31.3-.59.52-.83,3.87-.88,7.41-2.65,10.38-5.07Z"/><path class="cls-3" d="m102.47,73.33c-3.26,3.17-7.37,5.48-11.94,6.54-.59.14-1.19.26-1.79.36-1.3.2-2.63.31-3.98.31-3.21,0-6.31-.61-9.18-1.73-.52-.2-1.02-.42-1.53-.65-3.15-1.47-5.98-3.57-8.3-6.17-2.31,2.59-5.14,4.69-8.3,6.17-.5.24-1.01.45-1.53.65,1.24,2.82,3,5.45,5.27,7.72.96.96,1.98,1.82,3.04,2.59.5.36,1,.7,1.52,1.01,3.99,2.48,8.52,3.76,13.07,3.82.12,0,.24,0,.36,0,.87,0,1.74-.05,2.61-.14,5.62-.57,11.08-3.01,15.38-7.3,4.3-4.3,6.73-9.76,7.3-15.38-.63.77-1.3,1.5-2.01,2.19Z"/><path class="cls-5" d="m83.98,18.37c-.69-.71-1.42-1.38-2.18-2-4.38-3.57-9.96-5.71-16.04-5.71s-11.66,2.15-16.04,5.71c.87-.09,1.74-.14,2.61-.14.12,0,.24,0,.36,0,4.55.06,9.08,1.34,13.07,3.82.51.32,1.02.66,1.52,1.01,1.06.77,2.08,1.64,3.04,2.6,2.26,2.26,4.03,4.89,5.27,7.71.22.51.43,1.02.62,1.54.15.41.29.82.42,1.24,1.49,4.84,5.24,8.6,10.08,10.08.41.13.83.27,1.24.42.52.19,1.03.39,1.54.61,1.12-2.87,1.73-5.97,1.73-9.18,0-1.35-.11-2.68-.31-3.98-.1-.61-.22-1.2-.35-1.79-1.07-4.58-3.38-8.69-6.55-11.95"/><path class="cls-3" d="m70.31,23.67c-.96-.96-1.98-1.82-3.04-2.6-.5-.36-1-.69-1.52-1.01-3.99-2.48-8.52-3.76-13.07-3.82-.12,0-.24,0-.36,0-.87,0-1.74.05-2.61.14-5.62.57-11.08,3-15.38,7.3-4.3,4.29-6.73,9.76-7.3,15.38.62-.77,1.29-1.5,2-2.18,3.26-3.18,7.37-5.48,11.95-6.55.59-.14,1.19-.26,1.79-.35,1.3-.21,2.63-.31,3.98-.31,3.21,0,6.31.61,9.18,1.73.51.2,1.02.42,1.53.65,3.15,1.47,5.98,3.57,8.3,6.17,2.31-2.59,5.14-4.69,8.3-6.17.5-.24,1.01-.45,1.53-.65-1.24-2.82-3-5.45-5.27-7.71Z"/><path class="cls-5" d="m110.19,55.09c0-6.08-2.15-11.66-5.72-16.04.1.99.14,1.98.13,2.97-.06,4.55-1.34,9.08-3.82,13.07-.32.51-.66,1.02-1.02,1.52-.77,1.06-1.63,2.08-2.59,3.03-2.26,2.27-4.89,4.03-7.71,5.27-.51.22-1.02.43-1.54.62-.41.15-.82.29-1.24.41-4.84,1.49-8.6,5.24-10.09,10.09-.13.41-.27.83-.41,1.23h0c-.19.52-.39,1.03-.62,1.54,2.87,1.12,5.97,1.73,9.18,1.73,1.35,0,2.68-.11,3.98-.31.6-.1,1.2-.22,1.79-.36,4.58-1.06,8.68-3.37,11.94-6.54h0c.71-.69,1.39-1.42,2.01-2.19,3.57-4.38,5.71-9.96,5.71-16.04Z"/><path class="cls-3" d="m104.48,39.05c-.57-5.62-3.01-11.09-7.3-15.38-4.29-4.3-9.76-6.73-15.38-7.3.77.62,1.5,1.29,2.18,2,3.17,3.26,5.48,7.37,6.55,11.95.14.59.26,1.19.35,1.79.21,1.3.31,2.63.31,3.98,0,3.2-.61,6.31-1.73,9.18-.2.52-.42,1.02-.65,1.53-1.47,3.15-3.57,5.98-6.17,8.3,2.6,2.31,4.7,5.14,6.17,8.3.23.5.45,1.01.65,1.53,2.82-1.24,5.45-3,7.71-5.27.96-.95,1.82-1.97,2.59-3.03.36-.5.7-1,1.02-1.52,2.48-3.99,3.76-8.52,3.82-13.07.01-.99-.03-1.98-.13-2.97Z"/><path class="cls-3" d="m47.52,91.82c-3.17-3.26-5.48-7.37-6.55-11.95-.14-.59-.26-1.19-.35-1.79-.21-1.3-.31-2.62-.31-3.98,0-3.2.61-6.31,1.73-9.18.2-.52.42-1.02.66-1.53,1.47-3.15,3.57-5.98,6.17-8.3-2.59-2.31-4.7-5.15-6.17-8.3-.23-.5-.45-1.01-.65-1.53-2.82,1.24-5.45,3-7.71,5.27-.96.96-1.82,1.98-2.59,3.04-.36.49-.7,1-1.02,1.52-2.48,3.99-3.76,8.52-3.82,13.07-.01.99.03,1.98.13,2.97.57,5.62,3.01,11.09,7.3,15.38,4.3,4.3,9.76,6.73,15.38,7.3-.77-.62-1.5-1.29-2.18-2Z"/><path class="cls-5" d="m46.75,29.65c-1.35,0-2.68.11-3.98.31-.6.1-1.2.22-1.79.35-4.58,1.07-8.69,3.37-11.95,6.55-.71.69-1.38,1.42-2,2.18-3.57,4.38-5.72,9.96-5.72,16.04s2.15,11.66,5.71,16.04c-.05-.49-.08-.99-.11-1.48-.02-.49-.03-.99-.02-1.49.06-4.55,1.34-9.08,3.82-13.07h0c.32-.51.66-1.02,1.02-1.52.77-1.06,1.63-2.08,2.59-3.04.28-.28.57-.56.87-.83.59-.53,1.2-1.04,1.83-1.51s1.27-.91,1.94-1.32c.33-.2.67-.4,1.01-.59.68-.38,1.37-.72,2.08-1.03.51-.22,1.02-.43,1.54-.61.41-.15.82-.29,1.24-.42,4.84-1.49,8.6-5.24,10.08-10.08.13-.42.27-.83.42-1.24h0c.19-.52.39-1.03.62-1.54-2.87-1.12-5.97-1.73-9.18-1.73Z"/></g><g><g><g><path class="cls-7" d="m283.04,48.64h-7.93c-.39,0-.73.32-.76.71l-1.36,18.16c-.03.39.27.71.66.71h7.93c.39,0,.73-.32.76-.71l1.36-18.16c.03-.39-.27-.71-.66-.71Z"/><path class="cls-7" d="m326.13,48.64h-7.93c-.39,0-.68.32-.65.71l1.38,18.16c.03.39.37.71.76.71h7.93c.39,0,.68-.32.65-.71l-1.38-18.16c-.03-.39-.37-.71-.76-.71Z"/><path class="cls-7" d="m327.34,38.94v-7.63c0-.39-.32-.71-.71-.71h-20.79c-.39,0-.71-.32-.71-.71v-5.38c0-.39-.32-.71-.71-.71h-7.63c-.39,0-.71.32-.71.71v5.38c0,.39-.32.71-.71.71h-20.79c-.39,0-.71.32-.71.71v7.63c0,.39.32.71.71.71h20.79c.39,0,.71.32.71.71v27.15c0,.39.32.71.71.71h7.63c.39,0,.71-.32.71-.71v-27.15c0-.39.32-.71.71-.71h20.79c.39,0,.71-.32.71-.71Z"/><path class="cls-7" d="m331.67,23.21h5.08c.39,0,.71.32.71.71v9.55c0,.39-.32.71-.71.71h-5.08c-.39,0-.71-.32-.71-.71v-9.55c0-.39.32-.71.71-.71Z"/><path class="cls-7" d="m340.94,23.21h5.08c.39,0,.71.32.71.71v9.55c0,.39-.32.71-.71.71h-5.08c-.39,0-.71-.32-.71-.71v-9.55c0-.39.32-.71.71-.71Z"/></g><g><path class="cls-7" d="m192.95,61.23l-33.48-33.55c-.19-.19-.49-.19-.67,0l-1.65,1.65-.34.34s-.15.15-.34.34l-24.83,24.83c-.19.19-.19.49,0,.67l5.72,5.72c.19.19.49.19.68,0l20.74-20.74c.19-.19.49-.19.67,0l27.09,27.14c.19.19.49.19.68,0l5.72-5.72c.19-.19.19-.49,0-.67Z"/><path class="cls-7" d="m185.76,36.58c3.69,0,6.68-2.99,6.68-6.68s-2.99-6.69-6.68-6.69-6.68,2.99-6.68,6.69,2.99,6.68,6.68,6.68Z"/></g><g><path class="cls-7" d="m218.23,27.74h-8.79c-.26,0-.5.21-.53.47l-4.75,39.52c-.03.26.16.47.42.47h8.79c.26,0,.5-.21.53-.47l4.75-39.52c.03-.26-.16-.47-.42-.47Z"/><path class="cls-7" d="m248.7,27.74h-8.79c-.26,0-.45.21-.42.47l4.8,39.52c.03.26.27.47.53.47h8.79c.26,0,.45-.21.42-.47l-4.8-39.52c-.03-.26-.27-.47-.54-.47Z"/><path class="cls-7" d="m261.37,23.21c-3.69,0-6.68,2.99-6.68,6.68s2.99,6.69,6.68,6.69,6.68-2.99,6.68-6.69-2.99-6.68-6.68-6.68Z"/></g><g><path class="cls-7" d="m484.73,25.6h24.43c.26,0,.48.21.48.48v4.02c0,.26-.21.48-.48.48h-24.43c-.26,0-.48-.21-.48-.48v-4.02c0-.26.21-.48.48-.48Z"/><path class="cls-7" d="m523.79,30.57h16.29c.26,0,.48-.22.48-.48v-4.02c0-.26-.21-.48-.48-.48h-25.44c-.26,0-.48.21-.48.48h0v41.66c0,.26.21.48.48.48h8.09c.26,0,.48-.21.48-.48v-27.51c0-.32.26-.58.58-.58h3c.32,0,.57.26.57.57v27.52c0,.26.21.48.48.48h8.09c.26,0,.48-.21.48-.48v-27.53c0-.31.25-.56.56-.56h3.11c.26,0,.48-.22.48-.48v-4.02c0-.26-.22-.48-.48-.48h-16.29c-.32,0-.58-.26-.58-.58v-2.96c0-.32.26-.57.57-.57Z"/><path class="cls-7" d="m509.16,34.67h-24.43c-.26,0-.48.21-.48.48h0v32.59c0,.26.21.48.48.48h8.09c.26,0,.48-.21.48-.48v-15.46c0-.32.26-.58.58-.58h15.28c.26,0,.48-.21.48-.48h0v-16.07h0c0-.09-.03-.17-.08-.25-.08-.14-.23-.23-.4-.23Zm-8.57,11.47c0,.32-.26.58-.58.58h-6.14c-.31,0-.57-.25-.57-.57v-5.94c0-.32.26-.57.57-.57h6.15c.32,0,.57.26.57.57v5.93Z"/></g><path class="cls-7" d="m475.58,59.47c0-.26-.21-.48-.48-.48h-8.09c-.26,0-.48.22-.48.48v3.19c0,.32-.26.57-.57.57h-2.98c-.35,0-.62-.32-.56-.66l2.26-12.9c.04-.26-.13-.47-.4-.47h-15.98c-.35,0-.62-.32-.56-.66l1.07-6.18c.04-.26-.13-.47-.4-.47h-8.09c-.09,0-.18.03-.27.08.1-.09.17-.2.19-.33l1.8-10.61c.05-.27.28-.47.55-.47h9.63c.28,0,.53.21.57.49l1.8,10.6c.04.26.3.47.56.47h8.09c.26,0,.44-.21.4-.47l-1.77-10.42c-.06-.35.21-.67.56-.67h3.53c.31,0,.56.25.56.56v5.17c0,.26.21.48.48.48h8.09c.26,0,.48-.21.48-.48v-10.22c0-.26-.21-.48-.48-.48h-22.57c-.32,0-.58-.26-.58-.58v-3.24c0-.26-.21-.48-.48-.48h-8.09c-.26,0-.48.22-.48.48v3.25c0,.31-.25.56-.56.56h-22.58c-.2,0-.48.12-.48.48v10.22c0,.26.21.48.48.48h8.09c.26,0,.48-.21.48-.48v-5.15c0-.32.26-.58.58-.58h3.49c.36,0,.63.32.57.68l-1.77,10.4c-.04.26.14.47.4.47h8.09c.09,0,.18-.03.27-.08-.1.08-.17.2-.19.33l-1.1,6.37c-.05.28-.29.48-.57.48h-9.3c-.26,0-.48.21-.48.48v4.02c0,.26.22.48.48.48h8.25c.35,0,.62.32.56.66l-1.45,8.4h-16.41c-.26,0-.48.21-.48.48v4.02c0,.26.22.48.48.48h19.26s4.86,0,4.86,0c.26,0,.52-.21.56-.47l2.26-13.08c.05-.28.29-.48.57-.48h6.9c.36,0,.63.33.57.68l-2.26,12.88c-.04.26.13.47.4.47h14.15s8.09,0,8.09,0c.26,0,.48-.21.48-.48v-8.26Z"/><g><path class="cls-7" d="m370.19,30.57h7.76c.26,0,.48-.22.48-.48v-4.02c0-.26-.22-.48-.48-.48h-23.18c-.26,0-.48.21-.48.48v4.02c0,.26.22.48.48.48h5.25c.33,0,.58.3.53.63l-6.25,36.52c-.04.26.13.47.4.47h8.09c.26,0,.51-.21.56-.47l6.27-36.67c.05-.28.29-.48.57-.48Z"/><path class="cls-7" d="m407.78,30.57h2.34c.26,0,.48-.22.48-.48v-4.02c0-.26-.21-.48-.48-.48h-25.94c-.26,0-.48.21-.48.48v4.02c0,.26.22.48.48.48h2.16c.34,0,.61.31.55.65l-1.36,7.95c-.05.28-.29.48-.57.48h-6.06c-.26,0-.48.21-.48.48v4.02c0,.26.21.48.48.48h5.04c.35,0,.61.31.55.65l-3.84,22.47c-.04.26.13.47.4.47h8.09c.26,0,.51-.21.56-.47l3.87-22.66c.05-.27.28-.46.55-.46h3.48c.31,0,.57.26.57.57v22.55c0,.26.21.48.47.48h8.09c.26,0,.48-.21.48-.48v-22.55c0-.32.26-.57.58-.57h2.34c.26,0,.48-.22.48-.48v-4.02c0-.26-.21-.48-.48-.48h-2.33c-.32,0-.58-.26-.58-.58v-7.94c0-.31.26-.57.57-.57Zm-9.62,8.51c0,.32-.26.57-.57.57h-2.44c-.34,0-.6-.31-.54-.64l1.36-7.96c.05-.28.29-.48.57-.48h1.06c.32,0,.57.26.57.57v7.93Z"/><path class="cls-7" d="m373.04,54.82c-3.69,0-6.68,2.99-6.68,6.68s2.99,6.68,6.68,6.68,6.68-2.99,6.68-6.68-2.99-6.68-6.68-6.68Z"/></g></g><g><path class="cls-7" d="m132.77,85.26h4.81c.85,0,1.62.09,2.31.26s1.29.43,1.78.79c.49.36.87.81,1.14,1.36.27.55.4,1.21.4,1.98s-.14,1.46-.43,2.02c-.29.56-.69,1.02-1.2,1.38-.51.36-1.12.62-1.82.79-.7.17-1.46.26-2.28.26h-2.49v6.92h-2.2v-15.75Zm2.2,6.96h2.34c.53,0,1.03-.05,1.48-.14.45-.1.84-.24,1.17-.44.33-.2.58-.46.76-.79s.27-.73.27-1.2-.09-.87-.28-1.19c-.19-.32-.44-.58-.76-.78-.32-.2-.7-.34-1.15-.42-.44-.08-.93-.12-1.45-.12h-2.38v5.09Z"/><path class="cls-7" d="m154.11,95.65v.36c0,.12,0,.24-.02.36h-8.39c.01.44.11.86.3,1.25.18.39.43.73.74,1.02s.67.51,1.08.67.84.24,1.3.24c.71,0,1.33-.16,1.85-.47.52-.31.93-.69,1.22-1.14l1.47,1.18c-.56.75-1.23,1.3-1.99,1.65-.76.35-1.61.53-2.55.53-.8,0-1.54-.13-2.22-.4-.68-.27-1.27-.64-1.76-1.12s-.88-1.06-1.16-1.75c-.28-.68-.42-1.44-.42-2.27s.14-1.57.41-2.26c.27-.69.66-1.28,1.15-1.77.49-.49,1.07-.87,1.74-1.15s1.39-.41,2.16-.41,1.48.13,2.11.38,1.17.62,1.61,1.09c.44.48.78,1.05,1.01,1.72s.36,1.43.36,2.28Zm-2.14-.84c-.01-.42-.09-.8-.21-1.17-.13-.36-.31-.68-.56-.94-.24-.27-.55-.48-.91-.63-.36-.16-.79-.23-1.28-.23-.44,0-.86.08-1.26.23s-.73.37-1.02.63c-.29.27-.53.58-.71.94-.19.36-.29.75-.32,1.17h6.27Z"/><path class="cls-7" d="m159,106.35h-2.09v-15.88h2.05v1.65h.07c.34-.56.84-1.03,1.5-1.39.66-.36,1.42-.55,2.3-.55.78,0,1.5.14,2.14.42.64.28,1.2.67,1.66,1.18.47.5.82,1.09,1.08,1.77s.38,1.4.38,2.17-.13,1.5-.38,2.18c-.25.68-.61,1.28-1.06,1.78-.46.5-1.01.9-1.66,1.19-.65.29-1.38.43-2.2.43-.75,0-1.46-.16-2.13-.49-.67-.33-1.19-.79-1.58-1.38h-.07v6.92Zm6.94-10.63c0-.49-.07-.96-.22-1.42-.15-.46-.37-.87-.67-1.22-.3-.36-.66-.64-1.1-.85-.44-.21-.95-.31-1.52-.31-.53,0-1.02.1-1.46.31-.44.21-.81.49-1.12.85-.31.36-.55.76-.72,1.22-.17.46-.26.94-.26,1.45s.09.99.26,1.45c.17.46.41.86.72,1.21.31.35.69.63,1.12.83.44.21.92.31,1.46.31.58,0,1.09-.11,1.52-.32.44-.21.8-.5,1.1-.86.3-.36.52-.76.67-1.22.15-.46.22-.93.22-1.42Z"/><path class="cls-7" d="m177.02,94.18c0-.79-.24-1.37-.71-1.75-.47-.38-1.11-.57-1.89-.57-.59,0-1.15.11-1.68.34s-.97.52-1.32.88l-1.11-1.33c.52-.49,1.15-.87,1.9-1.16.75-.28,1.55-.42,2.41-.42.76,0,1.41.11,1.97.32s1.01.51,1.37.88c.36.37.62.81.8,1.31s.27,1.05.27,1.62v4.61c0,.36.01.73.03,1.12.02.39.06.72.12.97h-1.89c-.12-.5-.18-1.01-.18-1.51h-.07c-.39.56-.87,1-1.46,1.31-.59.31-1.28.47-2.08.47-.41,0-.85-.06-1.3-.17-.45-.11-.87-.29-1.23-.55-.37-.25-.68-.59-.92-1s-.37-.93-.37-1.54c0-.8.21-1.43.64-1.9.43-.47.99-.82,1.69-1.07s1.48-.4,2.36-.48c.87-.07,1.76-.11,2.65-.11v-.29Zm-.51,1.8c-.52,0-1.06.02-1.61.07-.56.04-1.06.13-1.51.27-.45.13-.83.33-1.12.6s-.44.62-.44,1.07c0,.31.06.57.19.78.13.21.29.38.5.51.21.13.44.23.69.28.25.05.51.08.78.08.98,0,1.73-.29,2.26-.88.53-.59.79-1.32.79-2.21v-.56h-.51Z"/><path class="cls-7" d="m183.96,99.34v1.67h-2.02v-16.82h2.09v7.85h.07c.35-.52.85-.96,1.49-1.32.64-.36,1.39-.55,2.26-.55.78,0,1.5.14,2.14.42.64.28,1.2.67,1.66,1.18.47.5.82,1.09,1.08,1.77.25.67.38,1.4.38,2.17s-.13,1.5-.38,2.18c-.25.68-.61,1.28-1.07,1.78-.46.5-1.01.9-1.66,1.19-.65.29-1.38.43-2.2.43-.75,0-1.47-.17-2.15-.5-.68-.33-1.23-.82-1.64-1.46h-.04Zm7.01-3.61c0-.49-.07-.96-.22-1.42s-.37-.87-.67-1.22c-.3-.35-.66-.64-1.1-.84-.44-.21-.95-.31-1.52-.31-.53,0-1.02.1-1.46.31-.44.21-.81.49-1.12.84s-.55.76-.72,1.22c-.17.46-.26.94-.26,1.44s.09.98.26,1.44c.17.46.41.86.72,1.21.31.35.69.62,1.12.83.44.21.92.31,1.46.31.58,0,1.09-.11,1.52-.32.44-.21.8-.5,1.1-.85.3-.35.52-.76.67-1.22.15-.46.22-.93.22-1.42Z"/><path class="cls-7" d="m206.21,95.71c0,.82-.14,1.56-.43,2.25-.29.68-.69,1.27-1.2,1.77s-1.12.88-1.81,1.16-1.45.41-2.25.41-1.55-.14-2.25-.41-1.3-.66-1.8-1.16-.9-1.09-1.19-1.77c-.29-.68-.43-1.43-.43-2.25s.14-1.56.43-2.24c.29-.67.69-1.26,1.19-1.75s1.1-.87,1.8-1.15,1.45-.41,2.25-.41,1.55.14,2.25.41,1.3.66,1.81,1.15.91,1.07,1.2,1.75c.29.68.43,1.42.43,2.24Zm-2.18.01c0-.5-.08-.98-.23-1.44s-.38-.86-.68-1.21-.67-.62-1.1-.83c-.44-.21-.94-.31-1.51-.31s-1.07.1-1.51.31c-.44.21-.81.48-1.1.83s-.53.75-.68,1.21-.23.94-.23,1.44.08.98.23,1.44.38.87.68,1.22.67.64,1.1.84c.44.21.94.31,1.51.31s1.07-.1,1.51-.31c.44-.21.81-.49,1.1-.84s.53-.76.68-1.22.23-.94.23-1.44Z"/><path class="cls-7" d="m216.97,101.01h-2.2v-15.75h5.05c.76,0,1.48.08,2.16.23s1.28.4,1.79.75c.51.34.92.79,1.21,1.35.3.56.44,1.23.44,2.04,0,1.16-.36,2.09-1.07,2.8-.71.71-1.63,1.16-2.76,1.36l4.4,7.23h-2.67l-4-7.01h-2.36v7.01Zm0-8.85h2.54c.52,0,1-.04,1.45-.13.44-.09.83-.23,1.17-.43.33-.2.6-.46.79-.78.19-.32.29-.72.29-1.19s-.1-.87-.29-1.19c-.19-.32-.45-.57-.77-.77-.32-.19-.69-.33-1.12-.41-.43-.08-.88-.12-1.36-.12h-2.69v5.03Z"/><path class="cls-7" d="m238.75,97.29l3.6,3.72h-2.91l-1.96-2.07c-.59.74-1.26,1.32-2.01,1.74-.75.42-1.67.62-2.77.62-.68,0-1.33-.1-1.96-.29s-1.17-.48-1.63-.86-.84-.85-1.11-1.4c-.27-.56-.41-1.2-.41-1.92,0-.59.1-1.12.3-1.59s.47-.89.79-1.26c.33-.37.71-.7,1.14-.98.43-.28.87-.53,1.32-.73-.51-.52-.94-1.07-1.29-1.66-.35-.59-.53-1.23-.53-1.95,0-.64.11-1.19.34-1.67.23-.47.54-.87.93-1.19.39-.32.84-.56,1.35-.71s1.03-.23,1.58-.23,1.07.08,1.56.23.92.39,1.29.7c.37.31.67.7.89,1.16s.33.99.33,1.6c0,.52-.09.99-.28,1.4-.18.42-.43.79-.74,1.13s-.67.65-1.08.91-.83.5-1.28.71l3.14,3.23,1.98-3.34h2.45l-3.03,4.69Zm-6.41-3.65c-.77.33-1.39.73-1.85,1.22s-.69,1.13-.69,1.94c0,.42.08.79.24,1.13.16.34.38.63.66.87s.59.42.95.55.72.19,1.09.19c.76,0,1.39-.17,1.91-.5.52-.33.99-.83,1.42-1.48l-3.74-3.92Zm3.23-5.03c0-.56-.19-1.04-.56-1.42-.38-.39-.86-.58-1.45-.58s-1.11.19-1.5.58c-.4.39-.6.89-.6,1.51,0,.25.05.5.14.76.1.25.22.5.37.75s.31.47.5.68c.18.21.37.39.54.56.32-.15.64-.31.95-.49s.58-.39.82-.62c.24-.24.43-.5.58-.78.15-.28.22-.59.22-.93Z"/><path class="cls-7" d="m244.51,85.26h5.41c1.01,0,2.02.15,3.02.45,1.01.3,1.92.76,2.74,1.4s1.48,1.45,1.98,2.45c.5.99.76,2.19.76,3.58s-.25,2.52-.76,3.5c-.5.99-1.16,1.8-1.98,2.45s-1.73,1.13-2.74,1.45c-1.01.32-2.02.48-3.02.48h-5.41v-15.75Zm2.2,13.82h2.76c.95,0,1.83-.13,2.64-.4.81-.27,1.5-.65,2.09-1.16s1.04-1.13,1.37-1.87c.33-.74.49-1.58.49-2.51s-.16-1.84-.49-2.58-.78-1.36-1.37-1.86-1.28-.87-2.09-1.13-1.69-.39-2.64-.39h-2.76v11.9Z"/><path class="cls-7" d="m269.21,101.01h-2.2v-15.75h2.2v15.75Z"/><path class="cls-7" d="m274.81,90.46c.03.27.05.57.07.9.01.33.02.61.02.83h.07c.13-.28.31-.54.54-.79s.49-.46.79-.65c.3-.18.62-.33.98-.43.36-.1.73-.16,1.11-.16.68,0,1.27.11,1.76.34.49.23.9.54,1.22.92s.57.84.72,1.36c.16.52.23,1.08.23,1.67v6.54h-2.09v-5.85c0-.43-.03-.84-.1-1.22-.07-.39-.19-.73-.37-1.02-.18-.3-.42-.53-.73-.71-.31-.18-.71-.27-1.2-.27-.83,0-1.51.32-2.04.95s-.79,1.47-.79,2.52v5.61h-2.09v-8.28c0-.28,0-.65-.02-1.09-.01-.44-.04-.84-.07-1.18h1.98Z"/><path class="cls-7" d="m291.56,93.13c-.24-.39-.57-.7-1-.95-.43-.24-.91-.37-1.45-.37-.24,0-.48.03-.71.08-.24.05-.45.13-.63.24-.18.11-.33.25-.44.42s-.17.38-.17.63c0,.45.2.78.6.99.4.21,1,.41,1.8.59.5.12.97.26,1.4.42.43.16.8.37,1.12.61.32.24.57.54.75.88.18.34.27.74.27,1.2,0,.62-.12,1.15-.36,1.58-.24.43-.55.78-.95,1.06-.39.27-.84.47-1.35.59-.5.12-1.02.18-1.56.18-.8,0-1.58-.16-2.35-.47s-1.4-.79-1.9-1.42l1.49-1.27c.28.42.67.76,1.17,1.05.5.28,1.04.42,1.63.42.27,0,.52-.03.77-.08.24-.05.47-.14.67-.26.2-.12.36-.27.48-.47.12-.19.18-.44.18-.73,0-.49-.23-.85-.7-1.09s-1.15-.46-2.06-.67c-.36-.09-.72-.2-1.08-.32-.36-.13-.69-.3-.99-.52-.3-.22-.54-.5-.72-.83-.19-.33-.28-.75-.28-1.23,0-.56.11-1.05.34-1.46.23-.41.53-.74.9-1,.37-.26.79-.45,1.27-.58.47-.13.96-.19,1.47-.19.76,0,1.49.15,2.19.45.7.3,1.25.73,1.63,1.29l-1.45,1.22Z"/><path class="cls-7" d="m300.91,92.18h-2.8v5.48c0,.64.12,1.09.36,1.36.24.27.61.41,1.14.41.19,0,.4-.02.62-.06.22-.04.42-.1.6-.18l.07,1.71c-.25.09-.53.16-.84.21-.3.05-.62.08-.94.08-.99,0-1.75-.27-2.28-.82-.53-.55-.79-1.37-.79-2.47v-5.72h-2.02v-1.71h2.02v-3.03h2.07v3.03h2.8v1.71Z"/><path class="cls-7" d="m305.51,86.66c0,.39-.14.7-.41.96-.27.25-.6.38-.98.38s-.71-.13-.97-.39c-.26-.26-.4-.57-.4-.95s.13-.71.4-.97c.27-.26.59-.39.97-.39s.71.13.98.39c.27.26.41.58.41.97Zm-.33,14.35h-2.09v-10.54h2.09v10.54Z"/><path class="cls-7" d="m313.99,92.18h-2.8v5.48c0,.64.12,1.09.36,1.36.24.27.61.41,1.14.41.19,0,.4-.02.62-.06.22-.04.42-.1.6-.18l.07,1.71c-.25.09-.53.16-.84.21-.3.05-.62.08-.94.08-.99,0-1.75-.27-2.28-.82-.53-.55-.79-1.37-.79-2.47v-5.72h-2.02v-1.71h2.02v-3.03h2.07v3.03h2.8v1.71Z"/><path class="cls-7" d="m323.58,101.01c-.03-.27-.05-.57-.07-.9-.01-.33-.02-.61-.02-.83h-.04c-.27.56-.72,1.04-1.35,1.43-.63.39-1.33.59-2.1.59-.68,0-1.27-.11-1.77-.33-.5-.22-.91-.53-1.22-.92-.32-.39-.56-.85-.71-1.37-.16-.52-.23-1.07-.23-1.67v-6.54h2.09v5.83c0,.43.03.84.1,1.23.07.39.19.74.37,1.03.18.3.42.53.73.71s.71.27,1.2.27c.84,0,1.53-.31,2.05-.95.52-.63.78-1.47.78-2.53v-5.61h2.09v8.28c0,.28,0,.65.02,1.09.01.45.04.84.07,1.18h-1.98Z"/><path class="cls-7" d="m334.25,92.18h-2.8v5.48c0,.64.12,1.09.36,1.36.24.27.61.41,1.14.41.19,0,.4-.02.62-.06.22-.04.42-.1.6-.18l.07,1.71c-.25.09-.53.16-.84.21-.3.05-.62.08-.94.08-.99,0-1.75-.27-2.28-.82-.53-.55-.79-1.37-.79-2.47v-5.72h-2.02v-1.71h2.02v-3.03h2.07v3.03h2.8v1.71Z"/><path class="cls-7" d="m346.27,95.65v.36c0,.12,0,.24-.02.36h-8.39c.01.44.11.86.3,1.25.18.39.43.73.74,1.02s.67.51,1.08.67.84.24,1.3.24c.71,0,1.33-.16,1.85-.47.52-.31.93-.69,1.22-1.14l1.47,1.18c-.56.75-1.23,1.3-1.99,1.65-.76.35-1.61.53-2.55.53-.8,0-1.54-.13-2.22-.4-.68-.27-1.27-.64-1.76-1.12s-.88-1.06-1.16-1.75c-.28-.68-.42-1.44-.42-2.27s.14-1.57.41-2.26c.27-.69.66-1.28,1.15-1.77.49-.49,1.07-.87,1.74-1.15s1.39-.41,2.16-.41,1.48.13,2.11.38,1.17.62,1.61,1.09c.44.48.78,1.05,1.01,1.72s.36,1.43.36,2.28Zm-2.14-.84c-.01-.42-.09-.8-.21-1.17-.13-.36-.31-.68-.56-.94-.24-.27-.55-.48-.91-.63-.36-.16-.79-.23-1.28-.23-.44,0-.86.08-1.26.23s-.73.37-1.02.63c-.29.27-.53.58-.71.94-.19.36-.29.75-.32,1.17h6.27Z"/><g><g><path class="cls-2" d="m419.23,99.95h1.07c.05,0,.12-.04.15-.08l4.44-7.27,2.41,8.32c.01.05.07.1.13.1h4.66c.05,0,.09-.04.07-.09l-4.91-15.56c-.02-.05-.07-.09-.13-.09h-1.75c-.05,0-.12.04-.15.08l-5.99,9.28-5.99-9.28s-.1-.08-.15-.08h-1.75c-.06,0-.11.04-.13.09l-4.91,15.56c-.02.05.01.09.07.09h4.66c.06,0,.11-.04.13-.1l2.41-8.32,4.44,7.27s.09.08.15.08h1.07Z"/><path class="cls-2" d="m406.51,92.2h0s-.05-.08-.1-.08h-13.28c-.7,0-1.27.57-1.27,1.27s.57,1.27,1.27,1.27h7.89c-.94,2.48-4.12,4.31-7.89,4.31-4.51,0-8.17-2.61-8.17-5.83s3.66-5.84,8.17-5.84c2.47,0,4.67.78,6.17,2.01,0,0,.01,0,.02.01.01.01.03.01.05.01h5.43c.05,0,.1-.04.1-.1,0-.02,0-.04-.02-.06,0,0,0,0,0-.01-2.31-2.46-6.7-4.12-11.74-4.12-7.44,0-13.47,3.62-13.47,8.09s6.03,8.09,13.47,8.09,13.46-3.62,13.46-8.09c0-.31-.03-.63-.09-.94"/><path class="cls-2" d="m445.32,85.05c-7.44,0-13.46,3.62-13.46,8.09s6.03,8.09,13.46,8.09,13.47-3.62,13.47-8.09-6.03-8.09-13.47-8.09m0,13.92c-4.51,0-8.17-2.61-8.17-5.83s3.66-5.84,8.17-5.84,8.17,2.62,8.17,5.84-3.66,5.83-8.17,5.83"/></g><path class="cls-8" d="m515.55,100.76c-.01.14.09.25.23.25h2.81c.14,0,.26-.11.27-.25l.48-6.44c.01-.14-.09-.25-.23-.25h-2.81c-.14,0-.26.11-.27.25l-.48,6.44Z"/><path class="cls-8" d="m531.82,94.07c-.14,0-.24.11-.23.25l.49,6.44c.01.14.13.25.27.25h2.81c.14,0,.4-.11.39-.25l-.65-6.44c-.01-.14-.13-.25-.27-.25h-2.81Z"/><path class="cls-8" d="m534.81,90.88c.14,0,.25-.11.25-.25v-2.71c0-.14-.11-.25-.25-.25h-7.52c-.14,0-.25-.11-.25-.25v-1.91c0-.14-.11-.25-.25-.25h-2.71c-.14,0-.25.11-.25.25v1.91c0,.14-.11.25-.25.25h-7.46c-.14,0-.25.11-.25.25v2.71c0,.14.11.25.25.25h7.46c.14,0,.25.11.25.25v9.63c0,.14.11.25.25.25h2.71c.14,0,.25-.11.25-.25v-9.63c0-.14.11-.25.25-.25h7.52Z"/><path class="cls-8" d="m462.96,96.27c-.07.07-.07.17,0,.24l2.03,2.03c.07.07.17.07.24,0l7.36-7.36c.07-.07.17-.07.24,0l9.61,9.62c.07.07.17.07.24,0l2.03-2.03c.07-.07.07-.17,0-.24l-11.87-11.9c-.07-.07-.17-.07-.24,0l-9.63,9.63Z"/><path class="cls-8" d="m490.06,100.84c-.01.09.06.17.15.17h3.12c.09,0,.18-.08.19-.17l1.69-14.02c.01-.09-.06-.17-.15-.17h-3.12c-.09,0-.18.08-.19.17l-1.69,14.02Z"/><path class="cls-8" d="m502.69,86.66c-.09,0-.16.08-.15.17l1.7,14.02c.01.09.1.17.19.17h3.12c.09,0,.16-.08.15-.17l-1.7-14.02c-.01-.09-.1-.17-.19-.17h-3.12Z"/><g><rect class="cls-4" x="536.63" y="85.05" width="2.41" height="4.21" rx=".25" ry=".25"/><rect class="cls-4" x="540.33" y="85.05" width="2.41" height="4.21" rx=".25" ry=".25"/><path class="cls-4" d="m482.66,89.79c1.31,0,2.37-1.06,2.37-2.37s-1.06-2.37-2.37-2.37-2.37,1.06-2.37,2.37,1.06,2.37,2.37,2.37"/><path class="cls-4" d="m510.57,85.05c-1.31,0-2.37,1.06-2.37,2.37s1.06,2.37,2.37,2.37,2.37-1.06,2.37-2.37-1.06-2.37-2.37-2.37"/></g><g><path class="cls-6" d="m358.13,88.21v5.67h.05c.1-.13.23-.28.39-.42.16-.15.34-.28.56-.4.22-.12.47-.23.77-.31.29-.08.62-.13.99-.13.57,0,1.1.11,1.58.33s.9.52,1.24.9c.35.38.62.83.81,1.35.19.52.29,1.07.29,1.67s-.09,1.15-.28,1.67c-.19.52-.45.98-.79,1.36-.34.39-.76.7-1.24.93-.49.23-1.04.35-1.66.35-.57,0-1.11-.12-1.61-.37-.5-.25-.89-.61-1.17-1.08h-.03v1.21h-1.92v-12.72h2.02Zm4.63,8.65c0-.31-.05-.63-.14-.93-.1-.31-.24-.59-.43-.83-.19-.25-.43-.45-.72-.6-.29-.15-.63-.23-1.03-.23-.37,0-.7.08-.99.24-.29.16-.54.36-.75.61-.21.25-.36.53-.47.84-.11.31-.16.63-.16.94s.05.63.16.93c.11.31.26.59.47.83.21.25.46.45.75.6.29.15.62.23.99.23.39,0,.73-.08,1.03-.24.29-.16.53-.36.72-.61.19-.25.33-.53.43-.84.1-.31.14-.63.14-.94Z"/><path class="cls-6" d="m365.68,92.86h2.24l2.25,5.87h.03l2-5.87h2.1l-3.82,9.81c-.15.37-.3.7-.47.98-.17.29-.37.53-.61.72-.24.2-.51.35-.83.45-.32.1-.7.15-1.15.15-.17,0-.34,0-.51-.03-.17-.02-.35-.05-.53-.09l.17-1.75c.13.04.27.08.4.09.13.02.25.03.36.03.21,0,.39-.03.54-.08.15-.05.27-.13.37-.24.1-.11.19-.24.27-.39.08-.16.16-.34.25-.56l.4-1.03-3.47-8.08Z"/></g></g></g></g></g></g></svg>