<svg xmlns="http://www.w3.org/2000/svg" viewBox="0 0 270 58.8"><defs><style>.cls-1{fill:none}.cls-2{fill:#3e6f99}.cls-3{fill:#d7d8d9}.cls-4{fill:#393c41}</style></defs><title>svg_logo_vertical</title><g id="レイヤー_2" data-name="レイヤー 2"><g id="レイヤー_1-2" data-name="レイヤー 1"><path class="cls-1" d="M0 0h270v58.8H0z"/><path class="cls-2" d="M39.31 45.09a12.25 12.25 0 0 1-1.26.07h-.17a12.22 12.22 0 0 1-6.28-1.84c-.25-.15-.49-.31-.73-.49a12.3 12.3 0 0 1-1.46-1.25 12.1 12.1 0 0 1-2.53-3.71c-.11-.24-.21-.49-.3-.74s-.14-.39-.2-.59a7.29 7.29 0 0 0-4.85-4.85l-.59-.2-.74-.3a12.17 12.17 0 0 0-.68 6.32c0 .29.11.58.17.86a12.22 12.22 0 0 0 3.15 5.74 12.23 12.23 0 0 0 6 3.4 1.33 1.33 0 0 1 .25.4S30.5 51 31.6 53.68c1.09-2.68 2.47-5.76 2.47-5.76a1.32 1.32 0 0 1 .25-.4 12.2 12.2 0 0 0 4.99-2.43z"/><path class="cls-3" d="M49.24 35.24a12.19 12.19 0 0 1-5.74 3.14c-.29.07-.57.13-.86.17a12.4 12.4 0 0 1-1.91.15 12.13 12.13 0 0 1-4.41-.83q-.37-.14-.73-.31a12.35 12.35 0 0 1-4-3 12.35 12.35 0 0 1-4 3c-.24.11-.49.22-.73.31a12.1 12.1 0 0 0 2.53 3.71 12.3 12.3 0 0 0 1.46 1.25c.24.17.48.33.73.49a12.22 12.22 0 0 0 6.28 1.84H38a12.2 12.2 0 0 0 12.16-11 12.1 12.1 0 0 1-.92 1.08z"/><path class="cls-2" d="M40.35 8.83a12.2 12.2 0 0 0-16.47-1 12.21 12.21 0 0 1 1.25-.07h.18a12.22 12.22 0 0 1 6.29 1.88c.25.15.49.32.73.49a12.32 12.32 0 0 1 1.46 1.25 12.11 12.11 0 0 1 2.53 3.71q.16.37.3.74c.07.2.14.39.2.59a7.28 7.28 0 0 0 4.85 4.85l.59.2.74.29a12.17 12.17 0 0 0 .68-6.32c0-.29-.11-.58-.17-.86a12.22 12.22 0 0 0-3.15-5.74"/><path class="cls-3" d="M33.78 11.37a12.32 12.32 0 0 0-1.46-1.25c-.24-.17-.48-.33-.73-.49a12.22 12.22 0 0 0-6.28-1.83h-.18A12.2 12.2 0 0 0 13 18.77a12 12 0 0 1 1-1 12.21 12.21 0 0 1 5.74-3.15q.43-.1.86-.17a12.13 12.13 0 0 1 6.32.68c.25.1.49.2.73.31a12.35 12.35 0 0 1 4 3 12.35 12.35 0 0 1 4-3c.24-.11.49-.22.73-.31a12.11 12.11 0 0 0-2.6-3.76z"/><path class="cls-2" d="M53 26.47a12.16 12.16 0 0 0-2.75-7.71 12.29 12.29 0 0 1-1.77 7.71c-.15.25-.32.49-.49.73a12.17 12.17 0 0 1-5 4l-.74.3-.59.2a7.29 7.29 0 0 0-4.85 4.85c-.06.2-.13.4-.2.59-.09.25-.19.5-.3.74a12.13 12.13 0 0 0 4.41.83 12.4 12.4 0 0 0 1.91-.15c.29 0 .58-.11.86-.17a12.19 12.19 0 0 0 5.74-3.14A12.2 12.2 0 0 0 53 26.47z"/><path class="cls-3" d="M50.2 18.77A12.2 12.2 0 0 0 39.3 7.86a12.29 12.29 0 0 1 4.2 6.71c.07.28.12.57.17.86a12.17 12.17 0 0 1-.67 6.32c-.1.25-.2.49-.31.73a12.35 12.35 0 0 1-3 4 12.33 12.33 0 0 1 3 4q.17.36.31.73a12.17 12.17 0 0 0 5-4c.17-.24.33-.48.49-.73a12.29 12.29 0 0 0 1.77-7.71zM22.84 44.12a12.22 12.22 0 0 1-3.15-5.74c-.07-.28-.12-.57-.17-.86a12.17 12.17 0 0 1 .68-6.32q.15-.37.32-.73a12.35 12.35 0 0 1 3-4 12.36 12.36 0 0 1-3-4q-.17-.36-.31-.73a12.15 12.15 0 0 0-3.71 2.53 12.3 12.3 0 0 0-1.25 1.46c-.17.24-.33.48-.49.73a12.21 12.21 0 0 0-1.84 6.28 12.53 12.53 0 0 0 .08 1.44 12.2 12.2 0 0 0 10.9 10.9 12.24 12.24 0 0 1-1.06-.96z"/><path class="cls-2" d="M22.46 14.25a12.2 12.2 0 0 0-1.91.15q-.43.07-.86.17a12.21 12.21 0 0 0-5.74 3.15 12 12 0 0 0-1 1 12.19 12.19 0 0 0 0 15.42q0-.35-.05-.71t0-.71a12.21 12.21 0 0 1 1.84-6.28c.15-.25.32-.49.49-.73a12.3 12.3 0 0 1 1.25-1.46l.42-.4q.42-.39.88-.73t.93-.63l.48-.28q.49-.27 1-.49l.74-.29.59-.2a7.28 7.28 0 0 0 4.85-4.85c.06-.2.13-.4.2-.59.09-.25.19-.5.3-.74a12.13 12.13 0 0 0-4.41-.8z"/><path class="cls-4" d="M136 23.37h-3.8a.37.37 0 0 0-.37.34l-.65 8.73a.31.31 0 0 0 .32.34h3.81a.37.37 0 0 0 .37-.34l.65-8.73a.31.31 0 0 0-.33-.34zm20.72 0h-3.81a.31.31 0 0 0-.31.34l.66 8.73a.37.37 0 0 0 .37.34h3.81a.31.31 0 0 0 .31-.34l-.66-8.73a.37.37 0 0 0-.37-.34z"/><path class="cls-4" d="M157.3 18.71V15a.34.34 0 0 0-.34-.34H147a.34.34 0 0 1-.34-.34v-2.54a.34.34 0 0 0-.34-.34h-3.67a.34.34 0 0 0-.34.34v2.59a.34.34 0 0 1-.34.34h-10a.34.34 0 0 0-.34.34v3.67a.34.34 0 0 0 .34.34h10a.34.34 0 0 1 .34.34v13a.34.34 0 0 0 .34.34h3.67a.34.34 0 0 0 .34-.34v-13a.34.34 0 0 1 .34-.34h10a.34.34 0 0 0 .3-.35z"/><rect class="cls-4" x="159.04" y="11.15" width="3.12" height="5.27" rx=".34" ry=".34"/><rect class="cls-4" x="163.49" y="11.15" width="3.12" height="5.27" rx=".34" ry=".34"/><path class="cls-4" d="M92.72 29.43L76.63 13.31a.23.23 0 0 0-.32 0l-.79.79-.16.16-.16.16-11.94 11.93a.23.23 0 0 0 0 .32L66 29.43a.23.23 0 0 0 .32 0l10-10a.23.23 0 0 1 .32 0l13 13a.23.23 0 0 0 .32 0l2.75-2.75a.23.23 0 0 0 .01-.25z"/><circle class="cls-4" cx="89.26" cy="14.36" r="3.21"/><path class="cls-4" d="M104.87 13.33h-4.22a.27.27 0 0 0-.26.23l-2.28 19a.2.2 0 0 0 .2.23h4.22a.27.27 0 0 0 .26-.23l2.28-19a.2.2 0 0 0-.2-.23zm14.64 0h-4.22a.2.2 0 0 0-.2.23l2.31 19a.27.27 0 0 0 .26.23h4.22a.2.2 0 0 0 .2-.23l-2.31-19a.27.27 0 0 0-.26-.23z"/><circle class="cls-4" cx="125.6" cy="14.36" r="3.21"/><rect class="cls-4" x="232.7" y="12.3" width="12.2" height="2.39" rx=".23" ry=".23"/><path class="cls-4" d="M251.7 14.69h7.83a.23.23 0 0 0 .23-.23v-1.93a.23.23 0 0 0-.23-.23h-12.22a.23.23 0 0 0-.23.23v20a.23.23 0 0 0 .23.23h3.89a.23.23 0 0 0 .23-.23v-13.2a.28.28 0 0 1 .28-.28h1.44a.28.28 0 0 1 .28.28v13.22a.23.23 0 0 0 .23.23h3.89a.23.23 0 0 0 .23-.23V19.32a.27.27 0 0 1 .27-.27h1.5a.23.23 0 0 0 .23-.23v-1.93a.23.23 0 0 0-.23-.23h-7.85a.28.28 0 0 1-.28-.28V15a.28.28 0 0 1 .28-.31zm-7.03 1.97h-11.74a.23.23 0 0 0-.23.23v15.66a.23.23 0 0 0 .23.23h3.89a.23.23 0 0 0 .23-.23v-7.43a.28.28 0 0 1 .28-.28h7.34a.23.23 0 0 0 .23-.23v-7.72a.22.22 0 0 0 0-.12.23.23 0 0 0-.23-.11zm-4.12 5.51a.28.28 0 0 1-.28.28h-3a.27.27 0 0 1-.27-.27v-2.85a.27.27 0 0 1 .27-.27h3a.27.27 0 0 1 .27.27zm-12.01 6.41a.23.23 0 0 0-.23-.23h-3.89a.23.23 0 0 0-.23.23v1.54a.27.27 0 0 1-.27.27h-1.43a.27.27 0 0 1-.27-.32l1.09-6.2a.19.19 0 0 0-.19-.23h-7.68a.27.27 0 0 1-.27-.32l.51-3a.19.19 0 0 0-.19-.23h-3.89a.26.26 0 0 0-.13 0 .27.27 0 0 0 .09-.16l.87-5.1a.27.27 0 0 1 .27-.22h4.63a.28.28 0 0 1 .28.23l.87 5.1a.28.28 0 0 0 .27.23h3.89a.19.19 0 0 0 .19-.23L222 15a.27.27 0 0 1 .27-.32h1.7a.27.27 0 0 1 .27.27v2.48a.23.23 0 0 0 .23.23h3.89a.23.23 0 0 0 .23-.23v-4.9a.23.23 0 0 0-.23-.23h-10.9a.28.28 0 0 1-.28-.28v-1.55a.23.23 0 0 0-.23-.23h-3.89a.23.23 0 0 0-.23.23V12a.27.27 0 0 1-.27.27h-10.85a.22.22 0 0 0-.23.23v4.91a.23.23 0 0 0 .23.23h3.89a.23.23 0 0 0 .23-.23V15a.28.28 0 0 1 .28-.28h1.68a.28.28 0 0 1 .27.33l-.85 5a.19.19 0 0 0 .19.23h3.89a.26.26 0 0 0 .13 0 .27.27 0 0 0-.09.16l-.53 3.06a.28.28 0 0 1-.27.23h-4.47a.23.23 0 0 0-.23.23v1.93a.23.23 0 0 0 .23.23h4a.27.27 0 0 1 .27.32l-.7 4h-7.88a.23.23 0 0 0-.23.23v1.93a.23.23 0 0 0 .23.23h11.59a.28.28 0 0 0 .27-.23l1.09-6.29a.28.28 0 0 1 .27-.23h3.32a.28.28 0 0 1 .28.33l-1.08 6.19a.19.19 0 0 0 .19.23h10.69a.23.23 0 0 0 .23-.23zm-50.65-13.89h3.73a.23.23 0 0 0 .23-.23v-1.93a.23.23 0 0 0-.23-.23h-11.14a.23.23 0 0 0-.23.23v1.93a.23.23 0 0 0 .23.23H173a.26.26 0 0 1 .25.3l-3 17.55a.19.19 0 0 0 .19.23h3.89a.28.28 0 0 0 .27-.23l3-17.62a.28.28 0 0 1 .29-.23zm18.11 0h1.12a.23.23 0 0 0 .23-.23v-1.93a.23.23 0 0 0-.23-.23h-12.51a.23.23 0 0 0-.23.23v1.93a.23.23 0 0 0 .23.23h1a.27.27 0 0 1 .26.31l-.65 3.82a.28.28 0 0 1-.27.23h-2.91a.23.23 0 0 0-.23.23v1.93a.23.23 0 0 0 .23.23h2.42a.27.27 0 0 1 .26.31l-1.84 10.8a.19.19 0 0 0 .19.23H187a.28.28 0 0 0 .27-.23l1.86-10.89a.27.27 0 0 1 .26-.22h1.67a.27.27 0 0 1 .27.27v10.84a.23.23 0 0 0 .23.23h3.89a.23.23 0 0 0 .23-.23V21.72a.27.27 0 0 1 .27-.27h1.12a.23.23 0 0 0 .23-.23v-1.94a.23.23 0 0 0-.23-.23H196a.28.28 0 0 1-.28-.28V15a.27.27 0 0 1 .28-.31zm-4.62 4.09a.28.28 0 0 1-.28.28h-1.17a.26.26 0 0 1-.26-.31l.65-3.82a.28.28 0 0 1 .27-.23h.51a.28.28 0 0 1 .28.28z"/><circle class="cls-4" cx="179.26" cy="29.55" r="3.21"/><path class="cls-4" d="M63.68 41H66a4.69 4.69 0 0 1 1.12.12 2.42 2.42 0 0 1 .86.38 1.74 1.74 0 0 1 .55.65 2.17 2.17 0 0 1 .19 1 2.12 2.12 0 0 1-.21 1 1.8 1.8 0 0 1-.58.66 2.58 2.58 0 0 1-.88.38 4.66 4.66 0 0 1-1.1.12h-1.2v3.33h-1.07zm1.06 3.36h1.13a3.4 3.4 0 0 0 .71-.07 1.78 1.78 0 0 0 .56-.21 1 1 0 0 0 .36-.38 1.19 1.19 0 0 0 .13-.58 1.13 1.13 0 0 0-.13-.57 1.08 1.08 0 0 0-.36-.38 1.56 1.56 0 0 0-.55-.2 3.89 3.89 0 0 0-.7-.06h-1.15zM74 46v.17a1.49 1.49 0 0 1 0 .17h-4a1.5 1.5 0 0 0 .15.6 1.58 1.58 0 0 0 .36.49 1.67 1.67 0 0 0 .52.32 1.82 1.82 0 0 0 1.52-.11 1.83 1.83 0 0 0 .59-.55l.71.57a2.53 2.53 0 0 1-1 .8 3.08 3.08 0 0 1-2.3.06 2.47 2.47 0 0 1-.85-.54 2.51 2.51 0 0 1-.56-.84 2.84 2.84 0 0 1-.2-1.09 2.92 2.92 0 0 1 .2-1.09 2.5 2.5 0 0 1 .55-.85 2.54 2.54 0 0 1 .84-.55 2.87 2.87 0 0 1 2.06 0 2.1 2.1 0 0 1 .77.53 2.37 2.37 0 0 1 .49.83A3.29 3.29 0 0 1 74 46zm-1-.41a1.93 1.93 0 0 0-.1-.56 1.29 1.29 0 0 0-.27-.46 1.26 1.26 0 0 0-.44-.31 1.56 1.56 0 0 0-.62-.11 1.63 1.63 0 0 0-.61.11 1.57 1.57 0 0 0-.49.31 1.6 1.6 0 0 0-.34.46 1.45 1.45 0 0 0-.16.56zm3.32 5.55h-1v-7.66h1v.79a1.88 1.88 0 0 1 .72-.67 2.26 2.26 0 0 1 1.11-.26 2.55 2.55 0 0 1 1 .2 2.38 2.38 0 0 1 .8.57 2.56 2.56 0 0 1 .52.85 3 3 0 0 1 .18 1 3 3 0 0 1-.18 1.05 2.59 2.59 0 0 1-.51.86 2.38 2.38 0 0 1-.8.57 2.58 2.58 0 0 1-1.06.21 2.3 2.3 0 0 1-1-.24 1.86 1.86 0 0 1-.76-.66zM79.67 46a2.22 2.22 0 0 0-.11-.69 1.75 1.75 0 0 0-.32-.59 1.55 1.55 0 0 0-.53-.41 1.7 1.7 0 0 0-.73-.15 1.62 1.62 0 0 0-.7.15 1.66 1.66 0 0 0-.54.41 1.88 1.88 0 0 0-.35.59 2 2 0 0 0 0 1.39 1.81 1.81 0 0 0 .35.58 1.69 1.69 0 0 0 .54.4 1.62 1.62 0 0 0 .7.15 1.64 1.64 0 0 0 .73-.16 1.6 1.6 0 0 0 .53-.41 1.75 1.75 0 0 0 .32-.59 2.22 2.22 0 0 0 .11-.67zm5.33-.73a1 1 0 0 0-.34-.84 1.42 1.42 0 0 0-.91-.27 2 2 0 0 0-.81.17 2.05 2.05 0 0 0-.64.42l-.54-.64a2.71 2.71 0 0 1 .92-.56 3.28 3.28 0 0 1 1.16-.2 2.63 2.63 0 0 1 .95.16 1.79 1.79 0 0 1 .66.42 1.73 1.73 0 0 1 .39.63 2.33 2.33 0 0 1 .13.78v2.76a2.8 2.8 0 0 0 .06.47h-.91a3.18 3.18 0 0 1-.09-.73 2 2 0 0 1-.7.63 2.1 2.1 0 0 1-1 .23 2.62 2.62 0 0 1-.63-.08 1.81 1.81 0 0 1-.6-.26 1.48 1.48 0 0 1-.45-.48 1.44 1.44 0 0 1-.18-.74 1.3 1.3 0 0 1 .31-.92 2 2 0 0 1 .82-.51 4.62 4.62 0 0 1 1.14-.23q.63-.05 1.28-.05zm-.25.87h-.78a3.59 3.59 0 0 0-.73.13 1.38 1.38 0 0 0-.54.29.66.66 0 0 0-.21.51.71.71 0 0 0 .09.38.76.76 0 0 0 .24.25 1 1 0 0 0 .33.13 1.85 1.85 0 0 0 .38 0 1.39 1.39 0 0 0 1.09-.42 1.54 1.54 0 0 0 .38-1v-.27zm3.6 1.62v.8h-1v-8.1h1v3.79a2.12 2.12 0 0 1 .72-.64 2.16 2.16 0 0 1 1.09-.26 2.55 2.55 0 0 1 1 .2 2.38 2.38 0 0 1 .8.57 2.57 2.57 0 0 1 .52.85 3 3 0 0 1 .18 1 3 3 0 0 1-.18 1.05 2.59 2.59 0 0 1-.51.86 2.37 2.37 0 0 1-.8.57 2.58 2.58 0 0 1-1.06.21 2.33 2.33 0 0 1-1-.24 2 2 0 0 1-.79-.7zM91.73 46a2.21 2.21 0 0 0-.11-.68 1.74 1.74 0 0 0-.32-.59 1.54 1.54 0 0 0-.53-.41 1.7 1.7 0 0 0-.73-.15 1.62 1.62 0 0 0-.7.15 1.65 1.65 0 0 0-.54.41 1.87 1.87 0 0 0-.35.59 2 2 0 0 0 0 1.39 1.8 1.8 0 0 0 .35.58 1.69 1.69 0 0 0 .54.4 1.62 1.62 0 0 0 .7.15 1.65 1.65 0 0 0 .73-.16 1.6 1.6 0 0 0 .53-.41 1.74 1.74 0 0 0 .32-.59 2.21 2.21 0 0 0 .11-.68zm7.35 0a2.75 2.75 0 0 1-.21 1.08 2.58 2.58 0 0 1-.58.85 2.61 2.61 0 0 1-.87.56 3.06 3.06 0 0 1-2.17 0 2.55 2.55 0 0 1-.87-.56 2.62 2.62 0 0 1-.57-.85A2.74 2.74 0 0 1 93.6 46a2.71 2.71 0 0 1 .21-1.08 2.54 2.54 0 0 1 1.44-1.39 3.05 3.05 0 0 1 2.17 0 2.65 2.65 0 0 1 .87.55 2.54 2.54 0 0 1 .58.84 2.72 2.72 0 0 1 .21 1.08zM98 46a2.14 2.14 0 0 0-.11-.69 1.76 1.76 0 0 0-.33-.58 1.57 1.57 0 0 0-.53-.4 1.84 1.84 0 0 0-1.45 0 1.57 1.57 0 0 0-.53.4 1.76 1.76 0 0 0-.33.58 2.19 2.19 0 0 0 0 1.39 1.82 1.82 0 0 0 .33.59 1.54 1.54 0 0 0 .53.41 1.84 1.84 0 0 0 1.45 0 1.54 1.54 0 0 0 .53-.41 1.82 1.82 0 0 0 .33-.59A2.14 2.14 0 0 0 98 46zm6.27 2.56h-1.07V41h2.43a4.66 4.66 0 0 1 1 .11 2.57 2.57 0 0 1 .86.36 1.77 1.77 0 0 1 .58.65 2.06 2.06 0 0 1 .21 1 1.83 1.83 0 0 1-.51 1.35 2.39 2.39 0 0 1-1.33.65l2.12 3.49h-1.29l-1.93-3.38h-1.14zm0-4.27h1.22a3.56 3.56 0 0 0 .7-.06 1.75 1.75 0 0 0 .56-.21 1.1 1.1 0 0 0 0-1.89 1.64 1.64 0 0 0-.54-.2 3.54 3.54 0 0 0-.65-.06h-1.3zm10.49 2.48l1.74 1.79h-1.4l-.94-1a3.28 3.28 0 0 1-1 .84 2.72 2.72 0 0 1-1.34.3 3.18 3.18 0 0 1-.94-.14 2.34 2.34 0 0 1-.79-.41 2 2 0 0 1-.54-.68 2.07 2.07 0 0 1-.2-.93 1.92 1.92 0 0 1 .15-.77 2.26 2.26 0 0 1 .38-.61 2.69 2.69 0 0 1 .55-.47 5.12 5.12 0 0 1 .64-.35 4.28 4.28 0 0 1-.62-.8 1.78 1.78 0 0 1-.25-.94 1.83 1.83 0 0 1 .17-.8 1.66 1.66 0 0 1 .45-.57 1.92 1.92 0 0 1 .65-.34 2.57 2.57 0 0 1 .76-.11 2.46 2.46 0 0 1 .75.11 1.8 1.8 0 0 1 .62.34 1.67 1.67 0 0 1 .43.56 1.75 1.75 0 0 1 .16.77 1.63 1.63 0 0 1-.13.68 2 2 0 0 1-.36.55 2.71 2.71 0 0 1-.52.44 4.92 4.92 0 0 1-.62.34l1.51 1.55 1-1.61h1.18zM111.68 45a2.58 2.58 0 0 0-.89.59 1.31 1.31 0 0 0-.33.93 1.25 1.25 0 0 0 .12.55 1.27 1.27 0 0 0 .32.42 1.41 1.41 0 0 0 .46.26 1.57 1.57 0 0 0 .53.09 1.67 1.67 0 0 0 .92-.24 2.39 2.39 0 0 0 .69-.71zm1.55-2.42a.94.94 0 0 0-.27-.69.93.93 0 0 0-.7-.28 1 1 0 0 0-.72.28 1 1 0 0 0-.29.73 1 1 0 0 0 .07.36 2.28 2.28 0 0 0 .18.36 2.2 2.2 0 0 0 .24.33l.26.33.46-.24a1.86 1.86 0 0 0 .39-.3 1.56 1.56 0 0 0 .28-.38 1 1 0 0 0 .1-.49zm4.31-1.58h2.61a5.15 5.15 0 0 1 1.46.21 3.92 3.92 0 0 1 1.32.68 3.46 3.46 0 0 1 1 1.18 3.78 3.78 0 0 1 .36 1.73 3.67 3.67 0 0 1-.36 1.69 3.53 3.53 0 0 1-1 1.18 4.1 4.1 0 0 1-1.32.7 4.8 4.8 0 0 1-1.46.23h-2.61zm1.06 6.66h1.33a4 4 0 0 0 1.27-.19 2.93 2.93 0 0 0 1-.56 2.49 2.49 0 0 0 .66-.9 3 3 0 0 0 .24-1.21 3.06 3.06 0 0 0-.24-1.24 2.45 2.45 0 0 0-.66-.9 2.91 2.91 0 0 0-1-.55 4.13 4.13 0 0 0-1.27-.19h-1.33zm10.84.9h-1.06V41h1.06zm2.71-5.08v.83a1.48 1.48 0 0 1 .26-.38 1.9 1.9 0 0 1 .38-.31 1.88 1.88 0 0 1 .47-.21 1.91 1.91 0 0 1 .54-.08 2 2 0 0 1 .85.17 1.72 1.72 0 0 1 .59.45 1.8 1.8 0 0 1 .35.65 2.78 2.78 0 0 1 .11.8v3.15h-1v-2.81a3.47 3.47 0 0 0 0-.59 1.42 1.42 0 0 0-.18-.49 1 1 0 0 0-.35-.34 1.16 1.16 0 0 0-.58-.13 1.22 1.22 0 0 0-1 .46 1.84 1.84 0 0 0-.38 1.22v2.7h-1V43.47zm8.07 1.29a1.32 1.32 0 0 0-.48-.46 1.38 1.38 0 0 0-.7-.18 1.59 1.59 0 0 0-.34 0 1 1 0 0 0-.31.12.65.65 0 0 0-.21.2.55.55 0 0 0-.08.31.51.51 0 0 0 .29.48 3.57 3.57 0 0 0 .87.28 5.42 5.42 0 0 1 .68.2 2.12 2.12 0 0 1 .54.29 1.28 1.28 0 0 1 .36.42 1.24 1.24 0 0 1 .13.58 1.56 1.56 0 0 1-.17.76 1.49 1.49 0 0 1-.46.51 1.87 1.87 0 0 1-.65.28 3.28 3.28 0 0 1-.75.09 3 3 0 0 1-1.13-.23 2.21 2.21 0 0 1-.92-.69l.72-.61a1.64 1.64 0 0 0 .56.5 1.57 1.57 0 0 0 .79.2 1.79 1.79 0 0 0 .37 0 1.06 1.06 0 0 0 .32-.12.62.62 0 0 0 .32-.58.56.56 0 0 0-.34-.53 4.55 4.55 0 0 0-1-.32l-.52-.16a1.73 1.73 0 0 1-.48-.25 1.26 1.26 0 0 1-.35-.4 1.21 1.21 0 0 1-.13-.6 1.4 1.4 0 0 1 .17-.7 1.45 1.45 0 0 1 .43-.48 1.92 1.92 0 0 1 .61-.28 2.75 2.75 0 0 1 .71-.09 2.7 2.7 0 0 1 1.06.21 1.75 1.75 0 0 1 .79.62zm4.5-.46h-1.35v2.64a1 1 0 0 0 .17.66.69.69 0 0 0 .55.2h.3a1.23 1.23 0 0 0 .29-.09v.83a2.44 2.44 0 0 1-.4.1 2.71 2.71 0 0 1-.46 0 1.45 1.45 0 0 1-1.1-.4 1.66 1.66 0 0 1-.38-1.19v-2.75h-1v-.83h1V42h1v1.46h1.35zm2.22-2.66a.6.6 0 0 1-.2.46.67.67 0 0 1-.47.18.64.64 0 0 1-.47-.19.61.61 0 0 1-.19-.46.63.63 0 0 1 .19-.47.64.64 0 0 1 .47-.19.66.66 0 0 1 .47.19.62.62 0 0 1 .2.48zm-.16 6.92h-1v-5.09h1zm4.22-4.26h-1.35v2.64a1 1 0 0 0 .17.66.69.69 0 0 0 .55.2h.3a1.23 1.23 0 0 0 .29-.09v.83a2.44 2.44 0 0 1-.4.1 2.71 2.71 0 0 1-.46 0 1.45 1.45 0 0 1-1.1-.4 1.66 1.66 0 0 1-.38-1.19v-2.75h-1v-.83h1V42h1v1.46H151zm4.65 4.25V47.73a1.66 1.66 0 0 1-.65.69 1.87 1.87 0 0 1-1 .28 2.07 2.07 0 0 1-.85-.16 1.57 1.57 0 0 1-.59-.45 1.9 1.9 0 0 1-.34-.66 2.79 2.79 0 0 1-.11-.8v-3.15h1v2.81a3.55 3.55 0 0 0 0 .6 1.43 1.43 0 0 0 .18.5 1 1 0 0 0 .35.34 1.16 1.16 0 0 0 .58.13 1.22 1.22 0 0 0 1-.46 1.85 1.85 0 0 0 .38-1.22v-2.7h1v5.1zm5.15-4.25h-1.35v2.64a1 1 0 0 0 .17.66.69.69 0 0 0 .55.2h.3a1.23 1.23 0 0 0 .29-.09v.83a2.44 2.44 0 0 1-.4.1 2.71 2.71 0 0 1-.46 0 1.45 1.45 0 0 1-1.1-.4 1.66 1.66 0 0 1-.38-1.19v-2.75h-1v-.83h1V42h1v1.46h1.35zm5.79 1.69v.17a1.49 1.49 0 0 1 0 .17h-4a1.5 1.5 0 0 0 .15.6 1.58 1.58 0 0 0 .36.49 1.67 1.67 0 0 0 .52.32 1.82 1.82 0 0 0 1.52-.11 1.83 1.83 0 0 0 .59-.55l.71.57a2.53 2.53 0 0 1-1 .8 3.08 3.08 0 0 1-2.3.06 2.47 2.47 0 0 1-.85-.54 2.51 2.51 0 0 1-.56-.84 2.84 2.84 0 0 1-.2-1.09 2.92 2.92 0 0 1 .2-1.09 2.5 2.5 0 0 1 .55-.85 2.54 2.54 0 0 1 .84-.55 2.87 2.87 0 0 1 2.06 0 2.1 2.1 0 0 1 .77.53 2.37 2.37 0 0 1 .49.83 3.29 3.29 0 0 1 .15 1.08zm-1-.41a1.93 1.93 0 0 0-.1-.56 1.29 1.29 0 0 0-.27-.46 1.26 1.26 0 0 0-.44-.31 1.56 1.56 0 0 0-.62-.11 1.63 1.63 0 0 0-.61.11 1.57 1.57 0 0 0-.49.31 1.6 1.6 0 0 0-.34.46 1.45 1.45 0 0 0-.16.56zm2.75 4.41h-.86l.74-2.68h1zm10.57-7.46a2.47 2.47 0 0 0-.87-.6 3 3 0 0 0-1.19-.23 2.89 2.89 0 0 0-1.2.24 2.69 2.69 0 0 0-.91.66 3 3 0 0 0-.58 1 3.37 3.37 0 0 0-.2 1.17 3.44 3.44 0 0 0 .2 1.19 2.91 2.91 0 0 0 .58 1 2.64 2.64 0 0 0 .92.65 3.06 3.06 0 0 0 1.22.24 4.73 4.73 0 0 0 1-.1 2.88 2.88 0 0 0 .78-.28v-2.17H177v-.9h2.73v3.68a5.49 5.49 0 0 1-1.31.49 6.55 6.55 0 0 1-1.54.17 4.41 4.41 0 0 1-1.64-.29 3.7 3.7 0 0 1-2.12-2.09 4.48 4.48 0 0 1 0-3.24 3.67 3.67 0 0 1 .85-1.25 3.85 3.85 0 0 1 1.28-.81 4.38 4.38 0 0 1 1.61-.29 4.6 4.6 0 0 1 1.62.27 3.45 3.45 0 0 1 1.19.72zm6.54 4.26l2.26-5.8h1.65v7.59h-1.06v-6.37l-2.52 6.35h-.68l-2.51-6.35v6.35h-1V41h1.65zm13.41-2.04a4.17 4.17 0 0 1-.31 1.61 3.82 3.82 0 0 1-.84 1.27 3.77 3.77 0 0 1-1.28.83 4.52 4.52 0 0 1-3.21 0 3.72 3.72 0 0 1-2.11-2.09 4.52 4.52 0 0 1 0-3.24 3.65 3.65 0 0 1 .84-1.25 3.81 3.81 0 0 1 1.27-.81 4.6 4.6 0 0 1 3.21 0 3.79 3.79 0 0 1 1.28.81 3.71 3.71 0 0 1 .84 1.25 4.2 4.2 0 0 1 .31 1.62zm-1.15 0a3.37 3.37 0 0 0-.2-1.17 3 3 0 0 0-.58-1A2.71 2.71 0 0 0 196 42a2.86 2.86 0 0 0-1.2-.24 2.83 2.83 0 0 0-1.18.24 2.65 2.65 0 0 0-.9.66 3 3 0 0 0-.57 1 3.37 3.37 0 0 0-.2 1.17 3.44 3.44 0 0 0 .2 1.19 2.9 2.9 0 0 0 .58 1 2.69 2.69 0 0 0 .9.65 2.85 2.85 0 0 0 1.18.24 2.93 2.93 0 0 0 1.19-.24 2.66 2.66 0 0 0 .91-.65 2.91 2.91 0 0 0 .58-1 3.44 3.44 0 0 0 .23-1.26zM203 41h2.32a4.69 4.69 0 0 1 1.12.12 2.42 2.42 0 0 1 .86.38 1.74 1.74 0 0 1 .55.65 2.17 2.17 0 0 1 .19 1 2.12 2.12 0 0 1-.21 1 1.8 1.8 0 0 1-.58.66 2.58 2.58 0 0 1-.88.38 4.66 4.66 0 0 1-1.1.12h-1.2v3.33H203zm1.06 3.36h1.13a3.4 3.4 0 0 0 .71-.07 1.78 1.78 0 0 0 .56-.21 1 1 0 0 0 .36-.38 1.19 1.19 0 0 0 .13-.58 1.13 1.13 0 0 0-.13-.57 1.08 1.08 0 0 0-.36-.38 1.56 1.56 0 0 0-.55-.2 3.89 3.89 0 0 0-.7-.06h-1.15zm9.22 1.64v.17a1.49 1.49 0 0 1 0 .17h-4a1.5 1.5 0 0 0 .15.6 1.58 1.58 0 0 0 .36.49 1.67 1.67 0 0 0 .52.32 1.82 1.82 0 0 0 1.52-.11 1.83 1.83 0 0 0 .59-.55l.71.57a2.53 2.53 0 0 1-1 .8 3.08 3.08 0 0 1-2.3.06A2.47 2.47 0 0 1 209 48a2.51 2.51 0 0 1-.56-.84 2.84 2.84 0 0 1-.2-1.09 2.92 2.92 0 0 1 .2-1.09 2.5 2.5 0 0 1 .55-.85 2.54 2.54 0 0 1 .84-.55 2.87 2.87 0 0 1 2.06 0 2.1 2.1 0 0 1 .77.53 2.37 2.37 0 0 1 .49.83 3.29 3.29 0 0 1 .13 1.06zm-1-.41a1.93 1.93 0 0 0-.1-.56 1.29 1.29 0 0 0-.27-.46 1.26 1.26 0 0 0-.44-.31 1.56 1.56 0 0 0-.62-.11 1.63 1.63 0 0 0-.61.11 1.57 1.57 0 0 0-.49.31 1.6 1.6 0 0 0-.34.46 1.45 1.45 0 0 0-.16.56zm3.35 5.55h-1v-7.66h1v.79a1.88 1.88 0 0 1 .72-.67 2.26 2.26 0 0 1 1.11-.26 2.55 2.55 0 0 1 1 .2 2.38 2.38 0 0 1 .8.57 2.56 2.56 0 0 1 .52.85 3 3 0 0 1 .18 1 3 3 0 0 1-.18 1.05 2.59 2.59 0 0 1-.51.86 2.38 2.38 0 0 1-.8.57 2.58 2.58 0 0 1-1.06.21 2.3 2.3 0 0 1-1-.24 1.86 1.86 0 0 1-.76-.66zM219 46a2.22 2.22 0 0 0-.11-.69 1.75 1.75 0 0 0-.32-.59 1.55 1.55 0 0 0-.53-.41 1.7 1.7 0 0 0-.73-.15 1.62 1.62 0 0 0-.7.15 1.66 1.66 0 0 0-.54.41 1.88 1.88 0 0 0-.35.59 2 2 0 0 0 0 1.39 1.81 1.81 0 0 0 .35.58 1.69 1.69 0 0 0 .54.4 1.62 1.62 0 0 0 .7.15 1.64 1.64 0 0 0 .73-.16 1.6 1.6 0 0 0 .53-.41 1.75 1.75 0 0 0 .32-.59A2.22 2.22 0 0 0 219 46zm5.32-.73a1 1 0 0 0-.34-.84 1.42 1.42 0 0 0-.91-.27 2 2 0 0 0-.81.17 2.05 2.05 0 0 0-.64.42l-.54-.64a2.71 2.71 0 0 1 .92-.56 3.28 3.28 0 0 1 1.16-.2 2.63 2.63 0 0 1 .95.16 1.79 1.79 0 0 1 .66.42 1.73 1.73 0 0 1 .39.63 2.33 2.33 0 0 1 .13.78v2.76a2.8 2.8 0 0 0 .06.47h-.91a3.18 3.18 0 0 1-.09-.73 2 2 0 0 1-.7.63 2.1 2.1 0 0 1-1 .23 2.62 2.62 0 0 1-.63-.08 1.81 1.81 0 0 1-.6-.26 1.48 1.48 0 0 1-.45-.48 1.44 1.44 0 0 1-.18-.74 1.3 1.3 0 0 1 .31-.92 2 2 0 0 1 .82-.51 4.62 4.62 0 0 1 1.14-.23q.63-.05 1.28-.05zm-.25.87h-.78a3.59 3.59 0 0 0-.73.13 1.38 1.38 0 0 0-.54.29.66.66 0 0 0-.21.51.71.71 0 0 0 .09.38.76.76 0 0 0 .24.25 1 1 0 0 0 .33.13 1.85 1.85 0 0 0 .38 0 1.39 1.39 0 0 0 1.09-.42 1.54 1.54 0 0 0 .38-1.07v-.27zm3.6 1.62v.8h-1v-8.1h1v3.79a2.12 2.12 0 0 1 .72-.64 2.16 2.16 0 0 1 1.09-.26 2.55 2.55 0 0 1 1 .2 2.38 2.38 0 0 1 .8.57 2.57 2.57 0 0 1 .52.85 3 3 0 0 1 .18 1 3 3 0 0 1-.18 1.05 2.59 2.59 0 0 1-.51.86 2.37 2.37 0 0 1-.8.57 2.58 2.58 0 0 1-1.06.21 2.33 2.33 0 0 1-1-.24 2 2 0 0 1-.79-.7zM231 46a2.21 2.21 0 0 0-.11-.68 1.74 1.74 0 0 0-.32-.59 1.54 1.54 0 0 0-.53-.41 1.7 1.7 0 0 0-.73-.15 1.62 1.62 0 0 0-.7.15 1.65 1.65 0 0 0-.54.41 1.87 1.87 0 0 0-.35.59 2 2 0 0 0 0 1.39 1.8 1.8 0 0 0 .35.58 1.69 1.69 0 0 0 .54.4 1.62 1.62 0 0 0 .7.15 1.65 1.65 0 0 0 .73-.16 1.6 1.6 0 0 0 .53-.41 1.74 1.74 0 0 0 .32-.59A2.21 2.21 0 0 0 231 46zm7.39 0a2.75 2.75 0 0 1-.21 1.08 2.58 2.58 0 0 1-.58.85 2.61 2.61 0 0 1-.87.56 3.06 3.06 0 0 1-2.17 0 2.55 2.55 0 0 1-.87-.56 2.62 2.62 0 0 1-.57-.85 2.74 2.74 0 0 1-.21-1.08 2.71 2.71 0 0 1 .21-1.08 2.54 2.54 0 0 1 1.44-1.39 3.05 3.05 0 0 1 2.17 0 2.65 2.65 0 0 1 .87.55 2.54 2.54 0 0 1 .58.84 2.72 2.72 0 0 1 .21 1.08zm-1.05 0a2.14 2.14 0 0 0-.11-.69 1.76 1.76 0 0 0-.33-.58 1.57 1.57 0 0 0-.53-.4 1.84 1.84 0 0 0-1.45 0 1.57 1.57 0 0 0-.53.4 1.76 1.76 0 0 0-.33.58 2.19 2.19 0 0 0 0 1.39 1.82 1.82 0 0 0 .33.59 1.54 1.54 0 0 0 .53.41 1.84 1.84 0 0 0 1.45 0 1.54 1.54 0 0 0 .53-.41 1.82 1.82 0 0 0 .33-.59 2.14 2.14 0 0 0 .11-.7zm2.48 4H239l.74-2.68h1zm5.91-1.44h-1.06V41h1.06zm2.7-5.08v.83a1.48 1.48 0 0 1 .26-.38 1.9 1.9 0 0 1 .38-.31 1.88 1.88 0 0 1 .47-.21 1.91 1.91 0 0 1 .54-.08 2 2 0 0 1 .85.17 1.72 1.72 0 0 1 .59.45 1.8 1.8 0 0 1 .35.65 2.78 2.78 0 0 1 .11.8v3.15h-1v-2.81a3.47 3.47 0 0 0 0-.59 1.42 1.42 0 0 0-.18-.49 1 1 0 0 0-.35-.34 1.16 1.16 0 0 0-.58-.13 1.22 1.22 0 0 0-1 .46 1.84 1.84 0 0 0-.38 1.22v2.7h-1V43.47zm8.89 1.29a1.23 1.23 0 0 0-.48-.41 1.47 1.47 0 0 0-.69-.17 1.58 1.58 0 0 0-.7.15 1.6 1.6 0 0 0-.52.4 1.76 1.76 0 0 0-.33.58 2.21 2.21 0 0 0 0 1.39 1.76 1.76 0 0 0 .33.58 1.58 1.58 0 0 0 .53.4 1.73 1.73 0 0 0 1.41 0 1.44 1.44 0 0 0 .52-.41l.68.61a2.19 2.19 0 0 1-.8.58 2.72 2.72 0 0 1-1.09.21 3 3 0 0 1-1.09-.19 2.58 2.58 0 0 1-.86-.54 2.5 2.5 0 0 1-.57-.84 2.8 2.8 0 0 1-.21-1.1 2.84 2.84 0 0 1 .2-1.09 2.49 2.49 0 0 1 .57-.85 2.54 2.54 0 0 1 .86-.55 3 3 0 0 1 1.08-.19 2.83 2.83 0 0 1 1.07.21 2 2 0 0 1 .84.62zm2.98 3.15a.7.7 0 0 1-.2.49.68.68 0 0 1-.51.21.69.69 0 0 1-.51-.21.67.67 0 0 1-.21-.49.7.7 0 0 1 .72-.71.7.7 0 0 1 .51.2.67.67 0 0 1 .2.51z"/></g></g></svg>